<?xml version="1.0" encoding="UTF-8" standalone="no"?>
<!-- Created with Inkscape (http://www.inkscape.org/) -->

<svg
   version="1.1"
   id="svg45"
   xml:space="preserve"
   width="32"
   height="32"
   viewBox="0 0 32 32"
   xmlns="http://www.w3.org/2000/svg"
   xmlns:svg="http://www.w3.org/2000/svg"><defs
     id="defs49"><clipPath
       clipPathUnits="userSpaceOnUse"
       id="clipPath59"><path
         d="M 0,24 H 24 V 0 H 0 Z"
         id="path57" /></clipPath></defs><g
     id="g51"
     transform="matrix(1.3333333,0,0,-1.3333333,0,32)"><g
       id="g53"><g
         id="g55"
         clip-path="url(#clipPath59)"><g
           id="g61"
           transform="translate(17,12)"><path
             d="m 0,0 c 0,-2.761 -2.239,-5 -5,-5 -2.761,0 -5,2.239 -5,5 0,2.761 2.239,5 5,5 2.761,0 5,-2.239 5,-5 z"
             style="fill:none;stroke:#000000;stroke-width:2;stroke-linecap:butt;stroke-linejoin:miter;stroke-miterlimit:10;stroke-dasharray:none;stroke-opacity:1"
             id="path63" /></g><g
           id="g65"
           transform="translate(18.5,3.125)"><path
             d="m 0,0 c -1.821,-1.336 -4.068,-2.125 -6.5,-2.125 -6.075,0 -11,4.925 -11,11 0,6.075 4.925,11 11,11 6.075,0 11,-4.925 11,-11 v -2 c 0,-1.657 -1.343,-3 -3,-3 -1.657,0 -3,1.343 -3,3 v 2"
             style="fill:none;stroke:#000000;stroke-width:2;stroke-linecap:butt;stroke-linejoin:miter;stroke-miterlimit:10;stroke-dasharray:none;stroke-opacity:1"
             id="path67" /></g></g></g></g></svg>
